<svg xmlns="http://www.w3.org/2000/svg" width="442" height="246" viewBox="0 0 442 246" role="img" aria-labelledby="title desc"><title id="title">MusicApp</title><desc id="desc">Music discovery, playlists, playback. Built for iOS. Built with Swift / iOS.</desc><defs><linearGradient id="accent" x1="0" x2="1"><stop stop-color="#53D7F9"/><stop offset=".55" stop-color="#B994FF"/><stop offset="1" stop-color="#F17BB5"/></linearGradient><linearGradient id="shade"><stop stop-color="#080E19" stop-opacity=".97"/><stop offset=".49" stop-color="#080E19" stop-opacity=".83"/><stop offset=".8" stop-color="#080E19" stop-opacity="0"/></linearGradient><linearGradient id="fade" x1="0" y1="0" x2="0" y2="1"><stop stop-color="#080E19" stop-opacity="0"/><stop offset="1" stop-color="#080E19"/></linearGradient></defs><rect x="0.5" y="0.5" width="441" height="245" rx="12" fill="#0D1522" stroke="#223047"/><path d="M18 1H424" stroke="#F17BB5" stroke-width="2" opacity=".7"/><text x="22" y="38" font-family="Segoe UI, Arial, sans-serif" font-size="20" font-weight="650" fill="#F0F5FF" text-anchor="start">MusicApp</text><g transform="translate(403 23) scale(0.6666666666666666)" fill="none" stroke="#F17BB5" stroke-width="1.6" stroke-linecap="round" stroke-linejoin="round"><path d="M5 19 19 5M5 5h14v14"/></g><text x="22" y="70" font-family="Segoe UI, Arial, sans-serif" font-size="14" font-weight="400" fill="#9CABBF" text-anchor="start">Music discovery, playlists, playback.</text><text x="22" y="91" font-family="Segoe UI, Arial, sans-serif" font-size="14" font-weight="400" fill="#9CABBF" text-anchor="start">Built for iOS.</text><rect x="22" y="111" width="398" height="76" rx="8" fill="#09111E" stroke="#1D2B40"/><rect x="37.0" y="144.5" width="3" height="9.0" rx="1.5" fill="#F17BB5" stroke="none"/><rect x="49.689655172413794" y="134.08623234686394" width="3" height="29.827535306272118" rx="1.5" fill="#F17BB5" stroke="none"/><rect x="62.37931034482759" y="128.58489265803672" width="3" height="40.83021468392657" rx="1.5" fill="#F17BB5" stroke="none"/><rect x="75.06896551724138" y="130.11128842897259" width="3" height="37.77742314205483" rx="1.5" fill="#F17BB5" stroke="none"/><rect x="87.75862068965517" y="136.90230395120247" width="3" height="24.195392097595047" rx="1.5" fill="#F17BB5" stroke="none"/><rect x="100.44827586206897" y="144.41197363479662" width="3" height="9.176052730406765" rx="1.5" fill="#F17BB5" stroke="none"/><rect x="113.13793103448276" y="140.02066836542758" width="3" height="17.95866326914482" rx="1.5" fill="#F17BB5" stroke="none"/><rect x="125.82758620689656" y="140.40219445729235" width="3" height="17.19561108541528" rx="1.5" fill="#F17BB5" stroke="none"/><rect x="138.51724137931035" y="143.63466832789283" width="3" height="10.730663344214356" rx="1.5" fill="#F17BB5" stroke="none"/><rect x="151.20689655172413" y="143.06270326240045" width="3" height="11.874593475199081" rx="1.5" fill="#F17BB5" stroke="none"/><rect x="163.89655172413794" y="144.4021563451123" width="3" height="9.195687309775373" rx="1.5" fill="#F17BB5" stroke="none"/><rect x="176.58620689655172" y="139.11751324903616" width="3" height="19.76497350192765" rx="1.5" fill="#F17BB5" stroke="none"/><rect x="189.27586206896552" y="133.28077231377333" width="3" height="31.43845537245337" rx="1.5" fill="#F17BB5" stroke="none"/><rect x="201.9655172413793" y="131.19706748972567" width="3" height="35.60586502054866" rx="1.5" fill="#F17BB5" stroke="none"/><rect x="214.6551724137931" y="135.42965117619877" width="3" height="27.140697647602444" rx="1.5" fill="#F17BB5" stroke="none"/><rect x="227.3448275862069" y="144.06521385067182" width="3" height="9.869572298656353" rx="1.5" fill="#F17BB5" stroke="none"/><rect x="240.0344827586207" y="133.58851656282604" width="3" height="30.82296687434794" rx="1.5" fill="#F17BB5" stroke="none"/><rect x="252.72413793103448" y="127.29644937745769" width="3" height="43.407101245084604" rx="1.5" fill="#F17BB5" stroke="none"/><rect x="265.41379310344826" y="128.2095440155969" width="3" height="41.58091196880621" rx="1.5" fill="#F17BB5" stroke="none"/><rect x="278.1034482758621" y="135.47933908798714" width="3" height="27.0413218240257" rx="1.5" fill="#F17BB5" stroke="none"/><rect x="290.7931034482759" y="144.02129459489433" width="3" height="9.957410810211345" rx="1.5" fill="#F17BB5" stroke="none"/><rect x="303.48275862068965" y="137.16908714227827" width="3" height="23.661825715443456" rx="1.5" fill="#F17BB5" stroke="none"/><rect x="316.17241379310343" y="135.71202944130295" width="3" height="26.5759411173941" rx="1.5" fill="#F17BB5" stroke="none"/><rect x="328.86206896551727" y="138.82899134114825" width="3" height="20.342017317703473" rx="1.5" fill="#F17BB5" stroke="none"/><rect x="341.55172413793105" y="142.98442802701743" width="3" height="12.031143945965121" rx="1.5" fill="#F17BB5" stroke="none"/><rect x="354.2413793103448" y="144.47155628955286" width="3" height="9.056887420894276" rx="1.5" fill="#F17BB5" stroke="none"/><rect x="366.9310344827586" y="141.97125318937157" width="3" height="14.057493621256867" rx="1.5" fill="#F17BB5" stroke="none"/><rect x="379.62068965517244" y="137.46167417237345" width="3" height="23.07665165525308" rx="1.5" fill="#F17BB5" stroke="none"/><rect x="392.3103448275862" y="134.8869050502456" width="3" height="28.22618989950882" rx="1.5" fill="#F17BB5" stroke="none"/><text x="22" y="220" font-family="ui-monospace, SFMono-Regular, Consolas, monospace" font-size="11.5" font-weight="400" fill="#F17BB5" text-anchor="start">Swift / iOS</text><text x="420" y="220" font-family="Segoe UI, Arial, sans-serif" font-size="11" font-weight="400" fill="#9CABBF" text-anchor="end">View code</text></svg>